<svg xmlns="http://www.w3.org/2000/svg" viewBox="0 0 1080 1920" width="1080" height="1920" role="img" aria-label="V&amp;P UkraLink story template">
  <title>V&amp;P UkraLink — story template</title>
  <defs>
    <linearGradient id="bg" x1="0" y1="0" x2="0.6" y2="1">
      <stop offset="0" stop-color="#0f2550"/>
      <stop offset="1" stop-color="#071531"/>
    </linearGradient>
    <linearGradient id="route" x1="0" y1="1" x2="1" y2="0">
      <stop offset="0" stop-color="#4d8dff"/>
      <stop offset="0.55" stop-color="#e6b422"/>
      <stop offset="1" stop-color="#ffd700"/>
    </linearGradient>
    <radialGradient id="orbGold" cx="0.5" cy="0.5" r="0.5">
      <stop offset="0" stop-color="#ffd700" stop-opacity="0.20"/>
      <stop offset="1" stop-color="#ffd700" stop-opacity="0"/>
    </radialGradient>
    <radialGradient id="orbBlue" cx="0.5" cy="0.5" r="0.5">
      <stop offset="0" stop-color="#4d8dff" stop-opacity="0.26"/>
      <stop offset="1" stop-color="#4d8dff" stop-opacity="0"/>
    </radialGradient>
  </defs>
  <rect width="1080" height="1920" fill="url(#bg)"/>
  <g stroke="#8fbaff" stroke-width="1" opacity="0.055"><line x1="0" y1="0" x2="0" y2="1920"/><line x1="90" y1="0" x2="90" y2="1920"/><line x1="180" y1="0" x2="180" y2="1920"/><line x1="270" y1="0" x2="270" y2="1920"/><line x1="360" y1="0" x2="360" y2="1920"/><line x1="450" y1="0" x2="450" y2="1920"/><line x1="540" y1="0" x2="540" y2="1920"/><line x1="630" y1="0" x2="630" y2="1920"/><line x1="720" y1="0" x2="720" y2="1920"/><line x1="810" y1="0" x2="810" y2="1920"/><line x1="900" y1="0" x2="900" y2="1920"/><line x1="990" y1="0" x2="990" y2="1920"/><line x1="1080" y1="0" x2="1080" y2="1920"/><line x1="0" y1="0" x2="1080" y2="0"/><line x1="0" y1="90" x2="1080" y2="90"/><line x1="0" y1="180" x2="1080" y2="180"/><line x1="0" y1="270" x2="1080" y2="270"/><line x1="0" y1="360" x2="1080" y2="360"/><line x1="0" y1="450" x2="1080" y2="450"/><line x1="0" y1="540" x2="1080" y2="540"/><line x1="0" y1="630" x2="1080" y2="630"/><line x1="0" y1="720" x2="1080" y2="720"/><line x1="0" y1="810" x2="1080" y2="810"/><line x1="0" y1="900" x2="1080" y2="900"/><line x1="0" y1="990" x2="1080" y2="990"/><line x1="0" y1="1080" x2="1080" y2="1080"/><line x1="0" y1="1170" x2="1080" y2="1170"/><line x1="0" y1="1260" x2="1080" y2="1260"/><line x1="0" y1="1350" x2="1080" y2="1350"/><line x1="0" y1="1440" x2="1080" y2="1440"/><line x1="0" y1="1530" x2="1080" y2="1530"/><line x1="0" y1="1620" x2="1080" y2="1620"/><line x1="0" y1="1710" x2="1080" y2="1710"/><line x1="0" y1="1800" x2="1080" y2="1800"/><line x1="0" y1="1890" x2="1080" y2="1890"/></g>
  <circle cx="950" cy="230" r="453" fill="url(#orbGold)"/>
  <circle cx="64" cy="1536" r="496" fill="url(#orbBlue)"/>
  <g transform="translate(474.0 300) scale(0.257812)">
    <rect width="512" height="512" rx="116" fill="#16376f"/>
    <path d="M138 372C206 372 244 206 374 156" fill="none" stroke="url(#route)"
          stroke-width="30" stroke-linecap="round"/>
    <circle cx="138" cy="372" r="27" fill="#8fbaff"/>
    <circle cx="374" cy="156" r="38" fill="#ffd700"/>
    <circle cx="374" cy="156" r="15" fill="#071531"/>
  </g>
  <text x="540" y="516" text-anchor="middle" font-family="Inter, 'Segoe UI', system-ui, -apple-system, 'Helvetica Neue', Arial, sans-serif" font-size="54" font-weight="700" letter-spacing="-1.4"><tspan fill="#ffd700">V&amp;P</tspan><tspan fill="#ffffff" dx="11">UkraLink</tspan></text>
  <text x="540" y="566" text-anchor="middle" font-family="Inter, 'Segoe UI', system-ui, -apple-system, 'Helvetica Neue', Arial, sans-serif" font-size="23" font-weight="500" letter-spacing="3.4" fill="#8fbaff">UKRAINE VISA CONSULTANTS</text>
  <rect x="96" y="760" width="888" height="560" rx="28" fill="#ffffff" opacity="0.035" stroke="#8fbaff" stroke-opacity="0.2" stroke-width="2" stroke-dasharray="14 12"/>
  <text x="540" y="1050" text-anchor="middle" font-family="Inter, 'Segoe UI', system-ui, -apple-system, 'Helvetica Neue', Arial, sans-serif" font-size="34" font-weight="500" fill="#9db0d0">Add your headline here</text>
  <text x="540" y="1100" text-anchor="middle" font-family="Inter, 'Segoe UI', system-ui, -apple-system, 'Helvetica Neue', Arial, sans-serif" font-size="26" font-weight="400" fill="#9db0d0" opacity="0.7">(this dashed box is a guide — delete it)</text>
  <text x="540" y="1700" text-anchor="middle" font-family="Inter, 'Segoe UI', system-ui, -apple-system, 'Helvetica Neue', Arial, sans-serif" font-size="31" font-weight="700" fill="#ffd700">Book a consultation</text>
  <text x="540" y="1752" text-anchor="middle" font-family="Inter, 'Segoe UI', system-ui, -apple-system, 'Helvetica Neue', Arial, sans-serif" font-size="28" font-weight="500" fill="#8fbaff">visa-consultancy.onrender.com</text>
</svg>
